<svg xmlns="http://www.w3.org/2000/svg" aria-hidden="true" style="position:absolute;width:0;height:0;overflow:hidden">
  <defs>
    <symbol id="Copyright--2021---FinanceLedger" viewBox="0 0 480 32">
      <path fill="#fff" d="M11.656 3.877c-2.378 0-4.258.794-5.64 2.383-1.372 1.579-2.058 3.745-2.058 6.498 0 2.832.661 5.023 1.984 6.572 1.332 1.54 3.227 2.309 5.684 2.309 1.51 0 3.232-.271 5.166-.814v2.206c-1.5.563-3.35.844-5.551.844-3.188 0-5.65-.967-7.386-2.901-1.727-1.934-2.59-4.683-2.59-8.245 0-2.23.414-4.184 1.243-5.862.839-1.678 2.043-2.97 3.612-3.878 1.579-.908 3.434-1.362 5.566-1.362 2.27 0 4.253.414 5.951 1.243l-1.066 2.161c-1.638-.77-3.276-1.155-4.914-1.155zm23.492 11.575c0 2.645-.666 4.712-1.998 6.202-1.332 1.48-3.173 2.22-5.521 2.22-1.451 0-2.739-.341-3.863-1.021s-1.993-1.658-2.605-2.931-.918-2.763-.918-4.47c0-2.645.661-4.702 1.983-6.173 1.322-1.48 3.158-2.22 5.507-2.22 2.27 0 4.071.755 5.403 2.265 1.342 1.51 2.013 3.553 2.013 6.128zm-12.36 0c0 2.072.414 3.651 1.243 4.737s2.048 1.628 3.656 1.628 2.827-.538 3.656-1.613c.839-1.085 1.258-2.669 1.258-4.752 0-2.062-.419-3.627-1.258-4.692-.829-1.076-2.058-1.614-3.686-1.614-1.609 0-2.822.528-3.641 1.584s-1.229 2.63-1.229 4.722zm24.232 8.423c-1.056 0-2.023-.192-2.901-.577a5.52 5.52 0 0 1-2.191-1.806h-.178c.118.947.178 1.845.178 2.694v6.676h-2.457V7.355h1.998l.34 2.22h.118c.632-.888 1.367-1.53 2.206-1.924s1.801-.592 2.887-.592c2.151 0 3.809.735 4.974 2.206 1.174 1.47 1.762 3.533 1.762 6.188 0 2.664-.597 4.737-1.791 6.217-1.184 1.47-2.832 2.206-4.944 2.206zm-.356-14.729c-1.658 0-2.857.459-3.597 1.377s-1.12 2.378-1.14 4.382v.548c0 2.28.38 3.913 1.14 4.9.76.977 1.979 1.465 3.656 1.465 1.401 0 2.497-.567 3.286-1.702.799-1.135 1.199-2.699 1.199-4.692 0-2.023-.4-3.572-1.199-4.648-.79-1.086-1.905-1.628-3.346-1.628zm8.823-1.791h2.635l3.553 9.252c.78 2.112 1.263 3.636 1.451 4.574h.118c.128-.503.395-1.362.799-2.576.414-1.224 1.757-4.974 4.026-11.25h2.635l-6.972 18.474c-.691 1.826-1.5 3.118-2.428 3.878-.918.77-2.048 1.155-3.39 1.155-.75 0-1.49-.084-2.22-.252v-1.969c.543.118 1.15.178 1.821.178 1.688 0 2.891-.947 3.612-2.842l.903-2.309-6.543-16.312zm25.253-.296c.72 0 1.367.059 1.939.178l-.34 2.28c-.671-.148-1.263-.222-1.776-.222-1.313 0-2.438.533-3.375 1.599-.928 1.066-1.391 2.393-1.391 3.982v8.704H73.34V7.356h2.028l.281 3.005h.118c.602-1.056 1.327-1.87 2.176-2.442s1.781-.859 2.798-.859zm7.431 16.52h-2.457V7.355h2.457v16.224zm-2.664-20.62c0-.563.138-.972.414-1.229.276-.266.622-.4 1.036-.4.395 0 .735.133 1.021.4s.429.676.429 1.229-.143.967-.429 1.243a1.45 1.45 0 0 1-1.021.4c-.414 0-.76-.133-1.036-.4-.276-.276-.414-.691-.414-1.243zm21.153 4.396v1.554l-3.005.355c.276.345.523.799.74 1.362.217.553.326 1.179.326 1.88 0 1.589-.543 2.857-1.628 3.804s-2.576 1.421-4.47 1.421c-.484 0-.937-.039-1.362-.118-1.046.553-1.569 1.248-1.569 2.087 0 .444.183.775.548.992.365.207.992.311 1.88.311h2.872c1.757 0 3.104.37 4.041 1.11.947.74 1.421 1.816 1.421 3.227 0 1.796-.721 3.163-2.161 4.1-1.441.947-3.543 1.421-6.306 1.421-2.122 0-3.76-.395-4.915-1.184-1.145-.79-1.717-1.905-1.717-3.345 0-.987.316-1.84.947-2.561s1.52-1.209 2.664-1.466a2.618 2.618 0 0 1-1.051-.873 2.344 2.344 0 0 1-.414-1.377c0-.592.158-1.11.474-1.554s.814-.873 1.495-1.288c-.839-.345-1.525-.933-2.058-1.762-.523-.829-.784-1.776-.784-2.842 0-1.776.533-3.143 1.599-4.1 1.066-.967 2.576-1.451 4.53-1.451.849 0 1.614.099 2.294.296h5.61zM93.722 26.303c0 .878.37 1.544 1.11 1.998s1.801.681 3.183.681c2.062 0 3.587-.311 4.574-.933.997-.612 1.495-1.446 1.495-2.502 0-.878-.271-1.49-.814-1.835-.543-.335-1.564-.503-3.064-.503H97.26c-1.115 0-1.984.266-2.605.799s-.933 1.298-.933 2.294zm1.332-13.752c0 1.135.321 1.993.962 2.576S97.55 16 98.695 16c2.398 0 3.597-1.164 3.597-3.493 0-2.438-1.214-3.656-3.641-3.656-1.155 0-2.043.311-2.664.933s-.933 1.544-.933 2.768zm26.038 11.028V13.084c0-1.322-.301-2.309-.903-2.961s-1.544-.977-2.827-.977c-1.707 0-2.956.464-3.745 1.391-.78.928-1.17 2.447-1.17 4.559v8.482h-2.457V.545h2.457v6.972c0 .839-.039 1.535-.118 2.087h.148c.484-.78 1.169-1.391 2.058-1.836.898-.454 1.919-.681 3.064-.681 1.984 0 3.469.474 4.456 1.421.997.938 1.495 2.433 1.495 4.485v10.584h-2.457zm12.76-1.732c.434 0 .854-.03 1.258-.089.405-.069.725-.138.962-.207v1.88c-.266.128-.661.232-1.184.311a8.209 8.209 0 0 1-1.391.133c-3.138 0-4.707-1.653-4.707-4.959V9.265h-2.324V8.081l2.324-1.021 1.036-3.464h1.421v3.76h4.707v1.91h-4.707v9.548c0 .977.232 1.727.696 2.25s1.1.785 1.91.785zm23.965-13.944c-1.234 0-2.186.429-2.857 1.288-.661.859-.992 2.048-.992 3.567 0 1.658.311 2.886.933 3.686.632.799 1.594 1.199 2.886 1.199.849 0 1.89-.222 3.123-.666v1.835c-.474.197-.962.365-1.465.503-.493.138-1.085.207-1.776.207-1.914 0-3.385-.592-4.411-1.776-1.026-1.194-1.54-2.857-1.54-4.988 0-2.063.543-3.701 1.628-4.914 1.095-1.214 2.586-1.821 4.47-1.821 1.263 0 2.477.296 3.641.888l-.859 1.747c-1.066-.503-1.993-.755-2.783-.755zm-11.738 4.855c0-1.974.493-3.824 1.48-5.551s2.344-3.089 4.071-4.086 3.587-1.495 5.581-1.495c1.974 0 3.824.493 5.551 1.48s3.089 2.344 4.086 4.071 1.495 3.587 1.495 5.581c0 1.944-.479 3.77-1.436 5.477s-2.299 3.074-4.026 4.1-3.617 1.54-5.669 1.54c-2.043 0-3.928-.508-5.655-1.525-1.727-1.026-3.074-2.393-4.041-4.1a11.053 11.053 0 0 1-1.436-5.492zm1.554 0c0 1.707.429 3.306 1.288 4.796a9.492 9.492 0 0 0 3.508 3.508 9.503 9.503 0 0 0 4.781 1.273c1.717 0 3.311-.429 4.781-1.288s2.635-2.018 3.493-3.479a9.285 9.285 0 0 0 1.303-4.811c0-1.717-.429-3.311-1.288-4.781s-2.023-2.635-3.493-3.493c-1.461-.868-3.059-1.303-4.796-1.303-1.717 0-3.311.429-4.781 1.288s-2.64 2.023-3.508 3.493c-.859 1.461-1.288 3.059-1.288 4.796zm45.77 10.821h-14.225v-2.117l5.699-5.729c1.736-1.757 2.88-3.01 3.434-3.76.552-.75.967-1.48 1.243-2.191s.414-1.475.414-2.294c0-1.155-.35-2.067-1.051-2.739-.701-.681-1.672-1.021-2.917-1.021-.898 0-1.752.148-2.56.444-.8.296-1.693.834-2.68 1.614l-1.302-1.673c1.992-1.658 4.163-2.487 6.513-2.487 2.033 0 3.626.523 4.781 1.569 1.154 1.036 1.731 2.433 1.731 4.189 0 1.372-.384 2.729-1.154 4.071s-2.211 3.039-4.323 5.092l-4.736 4.633v.118h11.131v2.28zm17.467-10.85c0 3.74-.591 6.533-1.777 8.378-1.174 1.845-2.974 2.768-5.403 2.768-2.328 0-4.099-.942-5.314-2.827-1.214-1.895-1.821-4.668-1.821-8.319 0-3.77.588-6.567 1.762-8.393s2.966-2.739 5.373-2.739c2.349 0 4.131.952 5.344 2.857 1.224 1.905 1.836 4.663 1.836 8.275zm-11.827 0c0 3.148.369 5.443 1.11 6.883.739 1.431 1.918 2.146 3.537 2.146 1.639 0 2.823-.725 3.554-2.176.739-1.461 1.11-3.745 1.11-6.854s-.371-5.383-1.11-6.824c-.731-1.451-1.915-2.176-3.554-2.176-1.619 0-2.797.715-3.537 2.146-.741 1.421-1.11 3.706-1.11 6.854zm29.058 10.85h-14.227v-2.117l5.699-5.729c1.736-1.757 2.882-3.01 3.434-3.76s.967-1.48 1.243-2.191a6.282 6.282 0 0 0 .416-2.294c0-1.155-.35-2.067-1.053-2.739-.701-.681-1.672-1.021-2.915-1.021-.898 0-1.752.148-2.56.444-.8.296-1.693.834-2.68 1.614l-1.304-1.673c1.994-1.658 4.165-2.487 6.513-2.487 2.033 0 3.628.523 4.781 1.569 1.155 1.036 1.733 2.433 1.733 4.189 0 1.372-.386 2.729-1.155 4.071s-2.21 3.039-4.322 5.092l-4.738 4.633v.118h11.133v2.28zm12.226 0h-2.397V8.155c0-1.283.039-2.497.118-3.641-.207.207-.44.424-.696.651-.258.227-1.432 1.189-3.523 2.886l-1.304-1.688 5.73-4.426h2.072v21.641zm15.884-7.002v-2.25h7.267v2.25h-7.267zm21.893 7.002h-2.516V1.938h12.064v2.235h-9.548v7.919h8.97v2.235h-8.97v9.252zm15.232 0h-2.457V7.355h2.457v16.224zm-2.665-20.62c0-.563.138-.972.414-1.229.276-.266.621-.4 1.036-.4.396 0 .736.133 1.022.4s.429.676.429 1.229-.143.967-.429 1.243a1.45 1.45 0 0 1-1.022.4c-.414 0-.76-.133-1.036-.4-.276-.276-.414-.691-.414-1.243zm18.978 20.62V13.084c0-1.322-.301-2.309-.904-2.961-.601-.651-1.544-.977-2.826-.977-1.698 0-2.941.459-3.731 1.377s-1.184 2.433-1.184 4.544v8.512h-2.457V7.355h1.997l.401 2.22h.118c.504-.799 1.209-1.416 2.117-1.85.908-.444 1.918-.666 3.033-.666 1.955 0 3.426.474 4.413 1.421.987.938 1.479 2.442 1.479 4.515v10.584h-2.456zm17.495 0-.488-2.309h-.118c-.81 1.016-1.619 1.707-2.429 2.072-.798.355-1.8.533-3.005.533-1.608 0-2.872-.414-3.789-1.243-.908-.829-1.361-2.008-1.361-3.538 0-3.276 2.619-4.993 7.86-5.151l2.752-.089v-1.007c0-1.273-.276-2.211-.829-2.813-.542-.612-1.416-.918-2.619-.918-1.352 0-2.882.414-4.589 1.243l-.755-1.88a11.527 11.527 0 0 1 2.619-1.021 11.46 11.46 0 0 1 2.872-.37c1.935 0 3.367.429 4.293 1.288.938.859 1.406 2.235 1.406 4.13v11.072h-1.821zm-5.551-1.732c1.529 0 2.728-.419 3.597-1.258.879-.839 1.317-2.013 1.317-3.523v-1.465l-2.457.104c-1.954.069-3.365.375-4.232.918-.859.533-1.288 1.367-1.288 2.502 0 .888.266 1.564.8 2.028.542.464 1.297.696 2.264.696zm23.552 1.732V13.084c0-1.322-.301-2.309-.903-2.961-.603-.651-1.544-.977-2.828-.977-1.698 0-2.941.459-3.731 1.377s-1.184 2.433-1.184 4.544v8.512h-2.457V7.355h1.997l.401 2.22h.118c.504-.799 1.209-1.416 2.117-1.85.908-.444 1.92-.666 3.035-.666 1.954 0 3.424.474 4.411 1.421.987.938 1.48 2.442 1.48 4.515v10.584h-2.457zm14.003.296c-2.348 0-4.168-.721-5.462-2.161-1.283-1.451-1.925-3.498-1.925-6.143 0-2.714.652-4.811 1.955-6.291 1.312-1.48 3.176-2.22 5.595-2.22.78 0 1.56.084 2.338.252.78.168 1.393.365 1.836.592l-.755 2.087a11 11 0 0 0-1.777-.533c-.64-.148-1.208-.222-1.701-.222-3.296 0-4.945 2.102-4.945 6.306 0 1.993.399 3.523 1.199 4.589.808 1.066 2.003 1.599 3.582 1.599 1.352 0 2.739-.291 4.16-.873v2.176c-1.086.563-2.452.844-4.101.844zm14.817 0c-2.398 0-4.293-.73-5.684-2.191-1.381-1.461-2.072-3.489-2.072-6.084 0-2.615.64-4.692 1.923-6.232 1.293-1.539 3.025-2.309 5.196-2.309 2.033 0 3.641.671 4.825 2.013 1.184 1.332 1.777 3.094 1.777 5.285v1.554h-11.176c.051 1.905.529 3.35 1.437 4.337.918.987 2.205 1.48 3.864 1.48 1.747 0 3.473-.365 5.181-1.095v2.191c-.869.375-1.693.641-2.472.799-.77.168-1.703.252-2.797.252zm-.666-14.758c-1.302 0-2.343.424-3.123 1.273-.77.849-1.224 2.023-1.363 3.523h8.483c0-1.549-.347-2.734-1.037-3.553-.691-.829-1.677-1.243-2.961-1.243zm11.206 14.462V1.938h2.516V21.3h9.548v2.28h-12.064zm22.234.296c-2.398 0-4.293-.73-5.684-2.191-1.381-1.461-2.072-3.489-2.072-6.084 0-2.615.64-4.692 1.923-6.232 1.293-1.539 3.025-2.309 5.196-2.309 2.033 0 3.641.671 4.825 2.013 1.184 1.332 1.777 3.094 1.777 5.285v1.554h-11.176c.051 1.905.529 3.35 1.437 4.337.918.987 2.205 1.48 3.864 1.48 1.747 0 3.473-.365 5.181-1.095v2.191c-.869.375-1.693.641-2.472.799-.77.168-1.703.252-2.797.252zm-.667-14.758c-1.302 0-2.343.424-3.123 1.273-.77.849-1.224 2.023-1.363 3.523h8.483c0-1.549-.347-2.734-1.037-3.553-.691-.829-1.677-1.243-2.961-1.243zm21.879 12.286h-.133c-1.135 1.648-2.833 2.472-5.093 2.472-2.122 0-3.774-.725-4.958-2.176-1.174-1.451-1.762-3.513-1.762-6.188s.591-4.752 1.777-6.232c1.184-1.48 2.831-2.22 4.943-2.22 2.201 0 3.889.799 5.063 2.398h.192l-.103-1.169-.059-1.14V.546h2.457v23.033h-1.999l-.325-2.176zm-4.914.414c1.677 0 2.892-.454 3.641-1.362.76-.918 1.14-2.393 1.14-4.426v-.518c0-2.299-.386-3.938-1.155-4.914-.76-.987-1.979-1.48-3.656-1.48-1.44 0-2.547.563-3.316 1.688-.76 1.115-1.139 2.694-1.139 4.737 0 2.072.379 3.636 1.139 4.692.761 1.056 1.876 1.584 3.347 1.584zm25.741-14.462v1.554l-3.005.355c.276.345.522.799.739 1.362.217.553.327 1.179.327 1.88 0 1.589-.544 2.857-1.629 3.804-1.086.947-2.577 1.421-4.472 1.421a7.44 7.44 0 0 1-1.361-.118c-1.046.553-1.57 1.248-1.57 2.087 0 .444.184.775.547.992.365.207.992.311 1.881.311h2.872c1.757 0 3.102.37 4.04 1.11.948.74 1.421 1.816 1.421 3.227 0 1.796-.721 3.163-2.161 4.1-1.442.947-3.544 1.421-6.306 1.421-2.122 0-3.761-.395-4.915-1.184-1.145-.79-1.718-1.905-1.718-3.345 0-.987.317-1.84.948-2.561s1.519-1.209 2.664-1.466a2.598 2.598 0 0 1-1.051-.873 2.331 2.331 0 0 1-.416-1.377c0-.592.158-1.11.475-1.554.315-.444.813-.873 1.494-1.288-.839-.345-1.524-.933-2.056-1.762-.524-.829-.785-1.776-.785-2.842 0-1.776.532-3.143 1.598-4.1 1.066-.967 2.575-1.451 4.531-1.451.847 0 1.613.099 2.294.296h5.61zM435.84 26.303c0 .878.371 1.544 1.11 1.998.741.454 1.802.681 3.183.681 2.063 0 3.587-.311 4.574-.933.997-.612 1.496-1.446 1.496-2.502 0-.878-.273-1.49-.815-1.835-.542-.335-1.563-.503-3.064-.503h-2.946c-1.115 0-1.984.266-2.605.799s-.933 1.298-.933 2.294zm1.332-13.752c0 1.135.322 1.993.963 2.576.64.582 1.534.873 2.678.873 2.398 0 3.597-1.164 3.597-3.493 0-2.438-1.214-3.656-3.641-3.656-1.155 0-2.043.311-2.664.933s-.933 1.544-.933 2.768zm21.791 11.324c-2.398 0-4.293-.73-5.684-2.191-1.383-1.461-2.073-3.489-2.073-6.084 0-2.615.642-4.692 1.925-6.232 1.292-1.539 3.025-2.309 5.196-2.309 2.033 0 3.641.671 4.825 2.013 1.184 1.332 1.777 3.094 1.777 5.285v1.554h-11.176c.049 1.905.529 3.35 1.437 4.337.916.987 2.205 1.48 3.864 1.48 1.747 0 3.473-.365 5.181-1.095v2.191c-.869.375-1.693.641-2.472.799-.77.168-1.703.252-2.797.252zm-.667-14.758c-1.302 0-2.343.424-3.123 1.273-.77.849-1.224 2.023-1.363 3.523h8.482c0-1.549-.345-2.734-1.036-3.553-.691-.829-1.677-1.243-2.961-1.243zm18.236-2.058c.721 0 1.368.059 1.94.178l-.34 2.28c-.672-.148-1.263-.222-1.777-.222-1.312 0-2.437.533-3.375 1.599-.928 1.066-1.391 2.393-1.391 3.982v8.704h-2.457V7.356h2.028l.281 3.005h.118c.603-1.056 1.327-1.87 2.176-2.442s1.782-.859 2.797-.859z" style="fill:var(--color1, #fff)"/>
    </symbol>
    <symbol id="twitter" viewBox="0 0 37 32">
      <path fill="#fff" d="M33.469 8.283c1.458-1.094 2.771-2.406 3.792-3.938a14.363 14.363 0 0 1-4.375 1.167c1.604-.948 2.771-2.406 3.354-4.229a16.177 16.177 0 0 1-4.812 1.896A7.657 7.657 0 0 0 25.813.773a7.655 7.655 0 0 0-7.656 7.656c0 .583.073 1.167.219 1.75A22.215 22.215 0 0 1 2.553 2.158c-.656 1.094-1.021 2.406-1.021 3.865a7.536 7.536 0 0 0 3.427 6.344c-1.24-.073-2.479-.365-3.5-.948v.073c0 3.719 2.625 6.781 6.125 7.511-.583.146-1.313.292-1.969.292-.51 0-.948-.073-1.458-.146.948 3.063 3.792 5.25 7.146 5.323-2.625 2.042-5.906 3.281-9.479 3.281-.656 0-1.24-.073-1.823-.146 3.354 2.187 7.365 3.427 11.74 3.427 14.073 0 21.729-11.594 21.729-21.729V8.284z" style="fill:var(--color1, #fff)"/>
    </symbol>
    <symbol id="facebook" viewBox="0 0 32 32">
      <path fill="#fff" d="M31.5 16.343c0-8.563-6.938-15.5-15.5-15.5S.5 7.781.5 16.343c0 7.75 5.625 14.188 13.063 15.312V20.843H9.625v-4.5h3.938v-3.375c0-3.875 2.313-6.063 5.812-6.063 1.75 0 3.5.313 3.5.313v3.813h-1.937c-1.938 0-2.562 1.187-2.562 2.438v2.875h4.313l-.688 4.5h-3.625v10.812c7.437-1.125 13.125-7.562 13.125-15.312z" style="fill:var(--color1, #fff)"/>
    </symbol>
    <symbol id="linkedin" viewBox="0 0 32 32">
      <path fill="#fff" d="M7.25 32V10.901H.687V32H7.25zM3.933 8.079c2.117 0 3.81-1.764 3.81-3.881 0-2.046-1.694-3.74-3.81-3.74-2.046 0-3.74 1.694-3.74 3.74 0 2.117 1.694 3.881 3.74 3.881zM31.736 32h.071V20.427c0-5.645-1.27-10.02-7.903-10.02-3.175 0-5.292 1.764-6.21 3.387h-.07v-2.893h-6.28V32h6.562V21.556c0-2.752.494-5.363 3.881-5.363s3.458 3.105 3.458 5.575V32h6.492z" style="fill:var(--color1, #fff)"/>
    </symbol>
    <symbol id="youtube" viewBox="0 0 45 32">
      <path fill="#fff" d="M43.664 5.831c-.486-1.944-2.025-3.484-3.889-3.97C36.291.889 22.518.889 22.518.889s-13.854 0-17.338.972c-1.863.486-3.403 2.025-3.889 3.97C.319 9.234.319 16.526.319 16.526s0 7.211.972 10.694c.486 1.944 2.025 3.403 3.889 3.889C8.664 32 22.518 32 22.518 32s13.773 0 17.257-.891c1.863-.486 3.403-1.944 3.889-3.889.972-3.484.972-10.694.972-10.694s0-7.292-.972-10.694zM17.982 23.088V9.963l11.505 6.563-11.505 6.563z" style="fill:var(--color1, #fff)"/>
    </symbol>
  </defs>
</svg>
